<?xml version="1.0" standalone="no"?>
<!DOCTYPE svg PUBLIC "-//W3C//DTD SVG 20010904//EN"
 "http://www.w3.org/TR/2001/REC-SVG-20010904/DTD/svg10.dtd">
<svg version="1.0" xmlns="http://www.w3.org/2000/svg"
 width="344.000000pt" height="257.000000pt" viewBox="0 0 344.000000 257.000000"
 preserveAspectRatio="xMidYMid meet">

<g transform="translate(0.000000,257.000000) scale(0.100000,-0.100000)"
fill="#000000" stroke="none">
<path d="M408 1714 c-20 -10 -32 -29 -43 -66 -8 -28 -15 -59 -15 -69 0 -22
-26 -43 -45 -35 -20 7 -20 64 1 87 16 18 12 73 -6 84 -28 17 -90 -69 -90 -124
0 -80 59 -147 120 -137 50 8 84 50 99 123 11 59 23 75 49 66 17 -7 15 -63 -4
-84 -14 -16 -15 -23 -4 -49 15 -36 29 -38 60 -5 28 30 39 110 20 155 -15 37
-59 70 -92 70 -12 -1 -35 -7 -50 -16z"/>
<path d="M2935 1707 c-52 -29 -79 -83 -94 -188 -7 -44 -10 -83 -8 -85 8 -8
326 -48 332 -42 4 3 11 48 17 101 11 91 11 96 -13 143 -43 86 -149 119 -234
71z m153 -94 c16 -18 22 -36 22 -73 0 -27 -5 -52 -11 -55 -5 -4 -49 -1 -96 5
l-85 12 6 42 c15 97 103 135 164 69z"/>
<path d="M415 1379 c-76 -33 -141 -62 -143 -64 -2 -2 2 -20 9 -39 15 -41 14
-41 117 5 35 16 68 29 72 29 5 0 -19 -45 -52 -99 -52 -85 -59 -104 -53 -131 4
-17 13 -34 20 -36 9 -4 298 108 313 121 3 3 -25 63 -33 73 -1 1 -39 -14 -85
-33 -45 -20 -84 -35 -86 -33 -2 2 16 36 40 74 73 118 77 127 63 163 -6 17 -18
31 -27 30 -8 -1 -78 -28 -155 -60z"/>
<path d="M2795 1340 c-8 -16 -15 -31 -15 -34 0 -3 39 -26 88 -50 48 -25 83
-45 77 -46 -20 -1 -238 -39 -240 -42 -1 -2 -10 -18 -19 -35 l-16 -33 150 -75
c83 -42 155 -73 159 -71 10 7 35 65 30 70 -2 2 -42 23 -89 47 l-85 42 123 20
c123 20 124 20 140 53 8 19 14 36 11 38 -6 6 -288 146 -294 146 -2 0 -11 -13
-20 -30z"/>
<path d="M598 1004 l-128 -105 76 -92 c42 -51 79 -93 83 -94 3 -2 18 7 33 20
l28 22 -55 65 -55 65 23 19 c22 18 22 18 64 -29 41 -48 42 -48 67 -31 14 9 26
20 26 24 0 5 -17 28 -37 51 -29 34 -34 47 -26 60 19 30 38 21 83 -39 25 -32
47 -59 50 -59 3 0 17 10 32 22 l28 22 -76 93 c-41 50 -78 92 -82 92 -4 0 -64
-48 -134 -106z"/>
<path d="M2617 1032 l-28 -29 80 -76 c91 -86 105 -116 70 -153 -42 -44 -75
-34 -159 51 -41 41 -79 75 -86 75 -6 0 -21 -11 -34 -25 -28 -29 -29 -26 82
-126 48 -44 91 -74 111 -78 102 -22 208 85 182 186 -6 24 -169 203 -185 203
-3 0 -18 -13 -33 -28z"/>
<path d="M862 729 c-84 -54 -152 -101 -152 -103 0 -2 16 -14 35 -26 31 -19 36
-20 57 -6 22 14 27 13 76 -22 49 -33 53 -39 48 -67 -5 -26 -1 -33 30 -53 20
-13 37 -22 38 -20 6 6 76 324 76 340 0 9 -13 26 -28 37 l-28 19 -152 -99z
m107 -65 c-7 -27 -13 -51 -15 -53 -2 -2 -17 7 -34 19 l-30 22 42 33 c24 18 44
32 46 30 2 -1 -2 -24 -9 -51z"/>
<path d="M2264 746 c-111 -52 -134 -181 -48 -275 83 -93 229 -70 284 45 42 85
4 191 -82 233 -57 27 -91 26 -154 -3z m105 -67 c88 -31 76 -168 -16 -185 -28
-6 -38 -1 -68 29 -25 25 -35 44 -35 67 0 52 18 73 86 100 1 0 15 -5 33 -11z"/>
<path d="M1191 678 c-37 -98 -91 -292 -83 -300 5 -5 21 -10 37 -11 25 -2 29 3
44 46 15 42 33 66 52 67 4 0 17 -36 30 -81 24 -84 28 -88 95 -105 l24 -6 -40
113 c-22 62 -39 113 -37 115 1 1 42 22 91 46 l89 45 -48 16 -48 17 -75 -40
c-42 -22 -77 -38 -79 -36 -2 1 6 28 16 59 l19 56 -30 10 c-43 15 -47 14 -57
-11z"/>
<path d="M1892 613 c-57 -14 -63 -17 -58 -37 3 -11 20 -86 38 -164 l33 -144
33 6 c19 3 37 7 40 10 2 3 0 28 -5 56 -9 45 -8 50 10 56 15 5 29 -5 60 -41 38
-45 41 -46 81 -40 22 4 43 9 45 11 3 3 -17 27 -43 53 l-49 49 22 28 c25 32 27
64 5 110 -30 64 -87 76 -212 47z m136 -95 c3 -28 -10 -40 -59 -51 -24 -6 -27
-4 -32 30 -8 44 3 54 53 51 30 -3 35 -7 38 -30z"/>
<path d="M1515 434 c-4 -91 -6 -167 -4 -169 2 -2 58 -5 124 -6 l120 -3 3 36 3
35 -80 5 c-45 3 -83 7 -85 9 -2 2 -2 16 1 32 5 27 5 27 69 21 l64 -7 0 35 c0
40 -14 48 -87 48 -39 0 -43 2 -43 25 0 25 1 25 85 25 l85 0 0 34 c0 31 -3 34
-37 40 -21 3 -77 6 -124 6 l-87 0 -7 -166z"/>
</g>
</svg>
