<?xml version="1.0" encoding="UTF-8"?>
<svg xmlns="http://www.w3.org/2000/svg" xmlns:xlink="http://www.w3.org/1999/xlink" width="443px" height="331px" viewBox="0 0 443 331" version="1.1">
<g id="surface1">
<path style=" stroke:none;fill-rule:nonzero;fill:rgb(0%,0%,0%);fill-opacity:1;" d="M 52.542969 110.332031 C 49.964844 111.621094 48.421875 114.070312 47.003906 118.839844 C 45.972656 122.449219 45.074219 126.445312 45.074219 127.734375 C 45.074219 130.570312 41.722656 133.277344 39.277344 132.246094 C 36.703125 131.34375 36.703125 123.996094 39.40625 121.03125 C 41.46875 118.710938 40.953125 111.621094 38.632812 110.203125 C 35.027344 108.011719 27.042969 119.097656 27.042969 126.1875 C 27.042969 136.5 34.640625 145.132812 42.496094 143.847656 C 48.9375 142.816406 53.316406 137.402344 55.246094 127.992188 C 56.664062 120.386719 58.207031 118.324219 61.554688 119.484375 C 63.746094 120.386719 63.488281 127.605469 61.042969 130.3125 C 59.238281 132.375 59.109375 133.277344 60.527344 136.628906 C 62.457031 141.269531 64.261719 141.527344 68.253906 137.273438 C 71.859375 133.40625 73.273438 123.09375 70.828125 117.292969 C 68.898438 112.523438 63.230469 108.269531 58.980469 108.269531 C 57.433594 108.398438 54.472656 109.171875 52.542969 110.332031 Z M 52.542969 110.332031 "/>
<path style=" stroke:none;fill-rule:nonzero;fill:rgb(0%,0%,0%);fill-opacity:1;" d="M 377.964844 111.234375 C 371.269531 114.972656 367.792969 121.933594 365.863281 135.46875 C 364.960938 141.140625 364.574219 146.164062 364.832031 146.421875 C 365.863281 147.453125 406.8125 152.609375 407.585938 151.835938 C 408.101562 151.449219 409.003906 145.648438 409.773438 138.820312 C 411.191406 127.089844 411.191406 126.445312 408.101562 120.386719 C 402.5625 109.300781 388.914062 105.046875 377.964844 111.234375 Z M 397.667969 123.351562 C 399.730469 125.671875 400.503906 127.992188 400.503906 132.761719 C 400.503906 136.242188 399.859375 139.464844 399.085938 139.851562 C 398.441406 140.367188 392.777344 139.980469 386.722656 139.207031 L 375.777344 137.660156 L 376.550781 132.246094 C 378.480469 119.742188 389.8125 114.84375 397.667969 123.351562 Z M 397.667969 123.351562 "/>
<path style=" stroke:none;fill-rule:nonzero;fill:rgb(0%,0%,0%);fill-opacity:1;" d="M 53.441406 153.511719 C 43.65625 157.765625 35.285156 161.503906 35.027344 161.761719 C 34.769531 162.019531 35.285156 164.339844 36.1875 166.789062 C 38.117188 172.074219 37.988281 172.074219 51.253906 166.144531 C 55.761719 164.082031 60.011719 162.40625 60.527344 162.40625 C 61.171875 162.40625 58.078125 168.207031 53.828125 175.167969 C 47.132812 186.125 46.230469 188.570312 47.003906 192.050781 C 47.519531 194.242188 48.679688 196.433594 49.578125 196.691406 C 50.738281 197.207031 87.957031 182.773438 89.886719 181.097656 C 90.273438 180.710938 86.667969 172.976562 85.636719 171.6875 C 85.507812 171.558594 80.617188 173.492188 74.691406 175.941406 C 68.898438 178.519531 63.875 180.453125 63.617188 180.195312 C 63.359375 179.9375 65.675781 175.554688 68.769531 170.65625 C 78.167969 155.445312 78.683594 154.285156 76.882812 149.644531 C 76.109375 147.453125 74.5625 145.648438 73.402344 145.777344 C 72.375 145.90625 63.359375 149.386719 53.441406 153.511719 Z M 53.441406 153.511719 "/>
<path style=" stroke:none;fill-rule:nonzero;fill:rgb(0%,0%,0%);fill-opacity:1;" d="M 359.9375 158.539062 C 358.90625 160.601562 358.003906 162.535156 358.003906 162.921875 C 358.003906 163.308594 363.027344 166.273438 369.339844 169.367188 C 375.519531 172.589844 380.027344 175.167969 379.253906 175.296875 C 376.679688 175.425781 348.605469 180.324219 348.347656 180.710938 C 348.21875 180.96875 347.058594 183.03125 345.902344 185.222656 L 343.839844 189.472656 L 363.15625 199.140625 C 373.84375 204.554688 383.117188 208.550781 383.632812 208.292969 C 384.921875 207.390625 388.140625 199.914062 387.496094 199.269531 C 387.238281 199.011719 382.085938 196.304688 376.035156 193.210938 L 365.089844 187.796875 L 380.929688 185.222656 C 396.769531 182.644531 396.898438 182.644531 398.957031 178.390625 C 399.988281 175.941406 400.761719 173.75 400.375 173.492188 C 399.601562 172.71875 363.285156 154.671875 362.511719 154.671875 C 362.253906 154.671875 361.097656 156.347656 359.9375 158.539062 Z M 359.9375 158.539062 "/>
<path style=" stroke:none;fill-rule:nonzero;fill:rgb(0%,0%,0%);fill-opacity:1;" d="M 77.011719 201.847656 L 60.527344 215.382812 L 70.3125 227.242188 C 75.722656 233.8125 80.488281 239.226562 81.003906 239.355469 C 81.386719 239.613281 83.320312 238.453125 85.25 236.777344 L 88.859375 233.941406 L 81.773438 225.566406 L 74.691406 217.1875 L 77.652344 214.738281 C 80.488281 212.417969 80.488281 212.417969 85.894531 218.476562 C 91.175781 224.664062 91.304688 224.664062 94.523438 222.472656 C 96.328125 221.3125 97.871094 219.894531 97.871094 219.378906 C 97.871094 218.734375 95.683594 215.769531 93.105469 212.804688 C 89.371094 208.421875 88.730469 206.746094 89.757812 205.070312 C 92.207031 201.203125 94.652344 202.363281 100.449219 210.097656 C 103.667969 214.222656 106.5 217.703125 106.886719 217.703125 C 107.273438 217.703125 109.074219 216.414062 111.007812 214.867188 L 114.613281 212.03125 L 104.824219 200.042969 C 99.546875 193.597656 94.78125 188.183594 94.265625 188.183594 C 93.75 188.183594 86.023438 194.371094 77.011719 201.847656 Z M 77.011719 201.847656 "/>
<path style=" stroke:none;fill-rule:nonzero;fill:rgb(0%,0%,0%);fill-opacity:1;" d="M 337.015625 198.238281 L 333.410156 201.976562 L 343.710938 211.773438 C 355.429688 222.859375 357.234375 226.726562 352.726562 231.492188 C 347.316406 237.164062 343.066406 235.875 332.25 224.921875 C 326.96875 219.636719 322.078125 215.253906 321.175781 215.253906 C 320.402344 215.253906 318.46875 216.671875 316.796875 218.476562 C 313.191406 222.214844 313.0625 221.828125 327.355469 234.714844 C 333.539062 240.386719 339.074219 244.253906 341.652344 244.769531 C 354.785156 247.605469 368.4375 233.8125 365.089844 220.796875 C 364.316406 217.703125 343.324219 194.628906 341.265625 194.628906 C 340.878906 194.628906 338.945312 196.304688 337.015625 198.238281 Z M 337.015625 198.238281 "/>
<path style=" stroke:none;fill-rule:nonzero;fill:rgb(0%,0%,0%);fill-opacity:1;" d="M 111.007812 237.292969 C 100.191406 244.253906 91.433594 250.3125 91.433594 250.570312 C 91.433594 250.828125 93.492188 252.375 95.941406 253.921875 C 99.933594 256.371094 100.578125 256.5 103.28125 254.695312 C 106.113281 252.890625 106.757812 253.019531 113.066406 257.53125 C 119.378906 261.785156 119.894531 262.558594 119.25 266.167969 C 118.605469 269.515625 119.121094 270.417969 123.113281 272.996094 C 125.6875 274.671875 127.878906 275.832031 128.007812 275.574219 C 128.777344 274.800781 137.792969 233.8125 137.792969 231.75 C 137.792969 230.589844 136.121094 228.398438 134.1875 226.984375 L 130.582031 224.535156 Z M 124.785156 245.671875 C 123.886719 249.152344 123.113281 252.246094 122.855469 252.503906 C 122.597656 252.761719 120.664062 251.601562 118.476562 250.054688 L 114.613281 247.21875 L 120.023438 242.964844 C 123.113281 240.644531 125.6875 238.839844 125.945312 239.097656 C 126.203125 239.226562 125.6875 242.191406 124.785156 245.671875 Z M 124.785156 245.671875 "/>
<path style=" stroke:none;fill-rule:nonzero;fill:rgb(0%,0%,0%);fill-opacity:1;" d="M 291.554688 235.101562 C 277.261719 241.804688 274.300781 258.433594 285.375 270.546875 C 296.0625 282.535156 314.863281 279.570312 321.949219 264.75 C 327.355469 253.792969 322.460938 240.128906 311.386719 234.714844 C 304.046875 231.234375 299.667969 231.363281 291.554688 235.101562 Z M 305.078125 243.738281 C 316.410156 247.734375 314.863281 265.394531 303.015625 267.585938 C 299.410156 268.359375 298.125 267.714844 294.261719 263.847656 C 291.039062 260.625 289.753906 258.175781 289.753906 255.210938 C 289.753906 248.507812 292.070312 245.800781 300.828125 242.320312 C 300.957031 242.320312 302.757812 242.964844 305.078125 243.738281 Z M 305.078125 243.738281 "/>
<path style=" stroke:none;fill-rule:nonzero;fill:rgb(0%,0%,0%);fill-opacity:1;" d="M 153.375 243.867188 C 148.609375 256.5 141.65625 281.503906 142.6875 282.535156 C 143.332031 283.179688 145.390625 283.824219 147.453125 283.953125 C 150.671875 284.210938 151.1875 283.566406 153.117188 278.023438 C 155.050781 272.609375 157.367188 269.515625 159.816406 269.386719 C 160.328125 269.386719 162.003906 274.027344 163.679688 279.828125 C 166.769531 290.65625 167.285156 291.171875 175.914062 293.363281 L 179.003906 294.136719 L 173.851562 279.570312 C 171.019531 271.578125 168.828125 265.007812 169.085938 264.75 C 169.214844 264.621094 174.496094 261.914062 180.804688 258.820312 L 192.265625 253.019531 L 186.085938 250.957031 L 179.90625 248.765625 L 170.246094 253.921875 C 164.835938 256.757812 160.328125 258.820312 160.074219 258.5625 C 159.816406 258.433594 160.84375 254.953125 162.132812 250.957031 L 164.578125 243.738281 L 160.714844 242.449219 C 155.179688 240.515625 154.664062 240.644531 153.375 243.867188 Z M 153.375 243.867188 "/>
<path style=" stroke:none;fill-rule:nonzero;fill:rgb(0%,0%,0%);fill-opacity:1;" d="M 243.648438 252.246094 C 236.308594 254.050781 235.535156 254.4375 236.179688 257.015625 C 236.566406 258.433594 238.757812 268.101562 241.074219 278.152344 L 245.324219 296.714844 L 249.574219 295.941406 C 252.019531 295.554688 254.339844 295.039062 254.726562 294.652344 C 254.984375 294.265625 254.726562 291.042969 254.082031 287.433594 C 252.921875 281.632812 253.050781 280.988281 255.367188 280.214844 C 257.300781 279.570312 259.101562 280.859375 263.09375 285.5 C 267.988281 291.300781 268.375 291.429688 273.527344 290.65625 C 276.359375 290.140625 279.0625 289.496094 279.320312 289.238281 C 279.707031 288.851562 277.132812 285.757812 273.785156 282.40625 L 267.472656 276.089844 L 270.308594 272.480469 C 273.527344 268.359375 273.785156 264.234375 270.949219 258.304688 C 267.085938 250.054688 259.746094 248.507812 243.648438 252.246094 Z M 261.164062 264.492188 C 261.550781 268.101562 259.875 269.644531 253.566406 271.0625 C 250.476562 271.835938 250.089844 271.578125 249.445312 267.199219 C 248.414062 261.527344 249.832031 260.238281 256.269531 260.625 C 260.132812 261.011719 260.777344 261.527344 261.164062 264.492188 Z M 261.164062 264.492188 "/>
<path style=" stroke:none;fill-rule:nonzero;fill:rgb(0%,0%,0%);fill-opacity:1;" d="M 195.101562 275.316406 C 194.585938 287.046875 194.328125 296.84375 194.585938 297.101562 C 194.84375 297.359375 202.054688 297.746094 210.554688 297.875 L 226.007812 298.261719 L 226.394531 293.621094 L 226.78125 289.109375 L 216.476562 288.464844 C 210.683594 288.078125 205.789062 287.5625 205.53125 287.304688 C 205.273438 287.046875 205.273438 285.242188 205.660156 283.179688 C 206.304688 279.699219 206.304688 279.699219 214.546875 280.472656 L 222.789062 281.375 L 222.789062 276.863281 C 222.789062 271.707031 220.984375 270.675781 211.585938 270.675781 C 206.5625 270.675781 206.046875 270.417969 206.046875 267.457031 C 206.046875 264.234375 206.175781 264.234375 216.992188 264.234375 L 227.9375 264.234375 L 227.9375 259.851562 C 227.9375 255.855469 227.550781 255.46875 223.175781 254.695312 C 220.46875 254.308594 213.257812 253.921875 207.207031 253.921875 L 196 253.921875 Z M 195.101562 275.316406 "/>
</g>
</svg>
